<?xml version="1.0" encoding="UTF-8" standalone="no"?>
<svg
   viewBox="0 0 128 128"
   version="1.1"
   id="svg30"
   sodipodi:docname="s3Particulares.svg"
   inkscape:version="1.1.2 (0a00cf5339, 2022-02-04, custom)"
   xmlns:inkscape="http://www.inkscape.org/namespaces/inkscape"
   xmlns:sodipodi="http://sodipodi.sourceforge.net/DTD/sodipodi-0.dtd"
   xmlns="http://www.w3.org/2000/svg"
   xmlns:svg="http://www.w3.org/2000/svg">
  <sodipodi:namedview
     id="namedview32"
     pagecolor="#ffffff"
     bordercolor="#666666"
     borderopacity="1.0"
     inkscape:pageshadow="2"
     inkscape:pageopacity="0.0"
     inkscape:pagecheckerboard="0"
     showgrid="false"
     inkscape:zoom="4.3012821"
     inkscape:cx="64.05067"
     inkscape:cy="44.637854"
     inkscape:window-width="1920"
     inkscape:window-height="1023"
     inkscape:window-x="0"
     inkscape:window-y="29"
     inkscape:window-maximized="1"
     inkscape:current-layer="svg30" />
  <defs
     id="defs4">
    <style
       id="style2">.cls-1{fill:#9085da;}</style>
  </defs>
  <g
     id="botones_light"
     data-name="botones light"
     style="opacity:0.98">
    <g
       id="ico_s3">
      <path
         class="cls-1"
         d="M 110.57,105.45 V 73.06 c 0,-11.94 -8.62,-21.7 -19.3,-21.7 H 87 c -10.62,0 -19.31,9.69 -19.31,21.7 v 32.77 a 15.47,15.47 0 0 0 -6.13,12.71 19.91,19.91 0 0 0 0.34,3.57 l 0.28,1.16 h 54.47 l 0.28,-1.16 a 16.05,16.05 0 0 0 0.34,-3.57 15.14,15.14 0 0 0 -6.7,-13.09 z m -37.23,-1.63 a 10.87,10.87 0 0 0 -2.76,0.31 V 73.06 c 0,-10.23 7.38,-18.6 16.55,-18.6 h 4.27 c 9.11,0 16.55,8.29 16.55,18.6 v 31 a 9.86,9.86 0 0 0 -2.13,-0.23 H 73.34 Z m 41.16,16.43 h -50 a 12.78,12.78 0 0 1 -0.07,-1.63 c 0,-6.43 4.41,-11.7 9.79,-11.7 h 30.69 c 5.38,0 9.79,5.27 9.79,11.7 a 12.75,12.75 0 0 0 -0.2,1.63 z"
         id="path6" />
      <path
         class="cls-1"
         d="M 88.71,93.2 A 3,3 0 0 1 85.89,90 c 0,-1.94 1.17,-3.26 2.89,-3.26 1.72,0 2.83,1.26 2.83,3.26 0,2 -1.17,3.25 -2.9,3.25 z M 86.92,84.91 86.23,68.72 h 5 l -0.69,16.19 z"
         id="path8" />
      <path
         class="cls-1"
         d="m 62.51,77.47 h -6.9 a 1.95,1.95 0 0 1 0,-3.87 h 6.9 a 1.95,1.95 0 0 1 0,3.87 z"
         id="path10" />
      <path
         class="cls-1"
         d="m 123.33,77.47 h -6.9 a 1.95,1.95 0 0 1 0,-3.87 h 6.9 a 1.95,1.95 0 0 1 0,3.87 z"
         id="path12" />
      <path
         class="cls-1"
         d="m 89.27,46.32 a 1.82,1.82 0 0 1 -1.73,-1.93 v -7.75 a 1.74,1.74 0 1 1 3.45,0 v 7.75 a 1.82,1.82 0 0 1 -1.72,1.93 z"
         id="path14" />
      <path
         class="cls-1"
         d="m 109.82,54.07 a 1.67,1.67 0 0 1 -1.25,-0.54 2,2 0 0 1 0,-2.71 l 4.83,-5.43 a 1.55,1.55 0 0 1 2.41,0 2.11,2.11 0 0 1 0,2.71 L 111,53.53 a 1.53,1.53 0 0 1 -1.18,0.54 z"
         id="path16" />
      <path
         class="cls-1"
         d="M 68.23,54.07 A 1.67,1.67 0 0 1 67,53.53 L 62.17,48.1 a 2,2 0 0 1 0,-2.71 1.6,1.6 0 0 1 2.41,0 l 4.83,5.43 a 2,2 0 0 1 0,2.71 1.44,1.44 0 0 1 -1.18,0.54 z"
         id="path18" />
      <path
         class="cls-1"
         d="m 1.28,32.76 4.39,-5.34 a 13.09,13.09 0 0 0 7.87,3.3 c 2.87,0 4.21,-1.09 4.21,-2.83 0,-1.74 -1.75,-2.47 -4.56,-3.65 L 9.06,22.5 C 5.67,21.16 2.49,18.33 2.49,13.63 2.49,8.2 7.36,3.85 14.23,3.85 A 15.06,15.06 0 0 1 24.75,8.11 L 20.89,13 a 10.52,10.52 0 0 0 -6.66,-2.48 c -2.39,0 -3.87,1 -3.87,2.7 0,1.7 2.05,2.48 4.92,3.61 l 4,1.61 c 4,1.61 6.39,4.3 6.39,8.87 0,5.39 -4.52,10.13 -12.35,10.13 A 18.08,18.08 0 0 1 1.28,32.76 Z"
         id="path20" />
      <path
         class="cls-1"
         d="M 28.4,32.9 32,28 a 9.93,9.93 0 0 0 6.74,3.13 c 3,0 5,-1.27 5,-3.7 0,-2.78 -1.48,-4.43 -8.27,-4.43 v -5.41 c 5.53,0 7.27,-1.7 7.27,-4.26 0,-2.22 -1.31,-3.43 -3.7,-3.43 -2.17,0 -3.83,1 -5.78,2.69 L 29.27,7.85 a 15.22,15.22 0 0 1 10.05,-4 C 46,3.85 50.4,7 50.4,12.76 c 0,3.22 -1.73,5.74 -5.21,7.14 v 0.21 c 3.61,1.09 6.26,3.7 6.26,7.87 0,6.05 -5.52,9.44 -12,9.44 -5.09,0 -8.7,-1.79 -11.05,-4.52 z"
         id="path22" />
      <path
         class="cls-1"
         d="M 53.61,111.83 A 54.64,54.64 0 0 1 23.11,42.59 l 5.36,2 a 48.94,48.94 0 0 0 27.31,62 z"
         id="path24" />
      <path
         class="cls-1"
         d="M 127.43,53.05 A 52.33,52.33 0 0 0 111.3,19.44 l 1.19,-1.23 a 54.68,54.68 0 0 0 -55,-12.82 l 1.76,5.43 a 49,49 0 0 1 49.26,11.48 l 1.5,-1.54 a 50.49,50.49 0 0 1 15.58,32.44 c 0.12,1.44 0.19,2.91 0.19,4.36 h 1.84 c 0,-1.5 -0.07,-3.02 -0.19,-4.51 z"
         id="path26" />
    </g>
  </g>
  <text
     xml:space="preserve"
     style="font-size:10.6667px;line-height:1.25;font-family:Roboto;-inkscape-font-specification:Roboto;fill:#9085da;fill-opacity:1"
     x="0.39978889"
     y="123.16583"
     id="text9803"><tspan
       sodipodi:role="line"
       id="tspan9801"
       x="0.39978889"
       y="123.16583">Particulares</tspan></text>
</svg>
